<?xml version="1.0" standalone="no"?>
<!DOCTYPE svg PUBLIC "-//W3C//DTD SVG 20010904//EN"
 "http://www.w3.org/TR/2001/REC-SVG-20010904/DTD/svg10.dtd">
<svg version="1.0" xmlns="http://www.w3.org/2000/svg"
 width="70.000000pt" height="70.000000pt" viewBox="0 0 70.000000 70.000000"
 preserveAspectRatio="xMidYMid meet">
<metadata>
Created by potrace 1.14, written by Peter Selinger 2001-2017
</metadata>
<g transform="translate(0.000000,70.000000) scale(0.100000,-0.100000)"
fill="#000000" stroke="none">
<path d="M90 642 c0 -10 14 -28 31 -41 l31 -23 -35 -34 c-46 -47 -52 -78 -23
-135 19 -36 22 -56 18 -102 l-5 -58 65 -64 c64 -65 65 -65 121 -65 31 0 59 5
62 10 4 6 -13 10 -45 10 -45 0 -55 4 -90 38 -35 33 -39 43 -41 89 -2 29 0 55
2 58 3 3 30 7 60 9 56 5 80 -4 92 -37 9 -24 30 -21 42 5 6 13 20 27 33 33 27
12 28 22 4 29 -11 4 -25 18 -33 32 -12 23 -11 27 6 40 17 13 21 13 31 -1 6 -8
26 -15 47 -15 31 0 36 3 42 31 5 21 2 36 -9 47 -17 20 -11 34 23 52 21 11 26
10 40 -7 9 -10 25 -25 36 -33 19 -14 19 -14 5 5 -8 11 -23 26 -32 33 -25 18
-23 29 10 57 15 13 24 26 21 29 -3 3 -19 -5 -35 -19 -36 -31 -63 -39 -118 -33
-47 6 -76 -5 -76 -27 0 -22 -13 -18 -41 11 -20 22 -32 25 -74 24 -68 -3 -65
-4 -110 35 -45 40 -55 43 -55 17z m386 -84 c4 -6 -3 -19 -17 -30 -13 -11 -41
-35 -62 -54 -22 -19 -42 -34 -47 -32 -21 8 -111 101 -103 108 16 14 74 -10 83
-35 10 -26 40 -35 40 -12 0 18 39 54 65 60 32 8 33 8 41 -5z m-276 -23 c10
-12 10 -18 1 -29 -7 -8 -11 -32 -9 -53 3 -36 5 -38 43 -41 28 -3 43 1 52 14
15 20 43 12 43 -14 0 -32 -22 -42 -92 -42 -64 0 -70 2 -98 33 -38 41 -38 78
-2 117 30 33 44 37 62 15z m285 -75 c0 -16 -6 -26 -18 -28 -19 -4 -32 20 -23
44 9 25 41 13 41 -16z m-225 0 c0 -13 -7 -20 -20 -20 -13 0 -20 7 -20 20 0 13
7 20 20 20 13 0 20 -7 20 -20z m114 -95 c5 -13 -1 -45 -9 -45 -17 0 -35 15
-35 29 0 32 33 44 44 16z"/>
<path d="M550 370 c-6 -11 -7 -20 -2 -20 10 0 32 21 32 32 0 16 -19 8 -30 -12z"/>
<path d="M536 224 c-9 -24 -7 -28 9 -14 17 14 20 30 6 30 -5 0 -12 -7 -15 -16z"/>
<path d="M170 60 c0 -6 28 -10 65 -10 37 0 65 4 65 10 0 6 -28 10 -65 10 -37
0 -65 -4 -65 -10z"/>
</g>
</svg>
